<svg width="120" height="40" xmlns="http://www.w3.org/2000/svg" version="1.1" xml:space="preserve">
 <title>d3-40x120</title>

 <g>
  <title>Layer 1</title>
  <g stroke="null" class="st6" enable-background="new" id="svg_14">
   <path stroke="null" class="st0" d="m15.30254,26.38479c0.74896,0.9328 0.9362,2.48747 0.9362,4.664c0,1.24373 -0.18724,2.48747 -0.37448,3.7312c-0.37448,0.9328 -0.74896,1.8656 -1.31068,2.48747c-0.56172,0.62187 -1.31068,0.9328 -1.8724,0.9328l-2.99584,0c-0.18724,0 -0.18724,0 -0.37448,-0.31093s-0.18724,-0.31093 -0.18724,-0.62187l0,-0.62187c0,-0.31093 0,-0.31093 0.18724,-0.62187c0,0 0.18724,-0.31093 0.37448,-0.31093l0.18724,0l0,-8.70613l-0.18724,0c-0.18724,0 -0.18724,0 -0.37448,-0.31093s-0.18724,-0.31093 -0.18724,-0.62187l0,-0.62187c0,-0.31093 0,-0.31093 0.18724,-0.62187s0.18724,-0.31093 0.37448,-0.31093l2.8086,0c1.12344,0.31093 2.05964,0.62187 2.8086,1.8656zm-1.31068,8.08427c0.37448,-0.9328 0.56172,-1.8656 0.56172,-3.42027c0,-1.24373 -0.18724,-2.48747 -0.56172,-3.10933c-0.37448,-0.62187 -0.9362,-0.9328 -1.68516,-0.9328l-0.74896,0l0,8.70613l0.9362,0c0.56172,0 1.12344,-0.62187 1.49792,-1.24373z" fill="#323031" id="svg_15"/>
   <path stroke="null" class="st0" d="m22.60489,33.84719l-3.7448,0c0,0.62187 0.18724,1.24373 0.37448,1.55467c0.18724,0.31093 0.56172,0.62187 0.9362,0.62187c0.18724,0 0.37448,0 0.56172,-0.31093c0.18724,0 0.37448,-0.31093 0.37448,-0.62187c0.18724,-0.31093 0.37448,-0.31093 0.56172,-0.31093c0.18724,0 0.37448,0 0.37448,0.31093c0.18724,0.31093 0.18724,0.31093 0.18724,0.62187c0,0.31093 0,0.62187 -0.18724,0.9328c-0.18724,0.31093 -0.37448,0.9328 -0.74896,1.24373c-0.37448,0.31093 -0.74896,0.31093 -1.12344,0.31093c-0.56172,0 -1.12344,-0.31093 -1.49792,-0.62187s-0.74896,-0.9328 -0.9362,-1.8656c-0.18724,-0.62187 -0.37448,-1.55467 -0.37448,-2.48747c0,-0.9328 0.18724,-1.8656 0.37448,-2.48747c0.18724,-0.62187 0.56172,-1.24373 0.9362,-1.55467c0.37448,-0.31093 0.9362,-0.62187 1.49792,-0.62187c0.37448,0 0.9362,0.31093 1.31068,0.62187c0.37448,0.31093 0.74896,0.9328 0.9362,1.55467s0.37448,1.55467 0.37448,2.48747c-0.18724,-0.31093 -0.18724,0 -0.18724,0.62187zm-3.7448,-1.8656l2.05964,0l0,-0.31093c0,-0.62187 0,-0.9328 -0.18724,-1.24373c-0.18724,-0.31093 -0.37448,-0.31093 -0.74896,-0.31093c-0.56172,0 -0.9362,0.62187 -1.12344,1.8656z" fill="#323031" id="svg_16"/>
   <path stroke="null" class="st0" d="m28.40933,34.77999c0.18724,0.31093 0.18724,0.31093 0.18724,0.62187c0,0.31093 0,0.62187 -0.18724,0.9328c-0.18724,0.31093 -0.37448,0.9328 -0.74896,1.24373c-0.37448,0.31093 -0.74896,0.31093 -1.12344,0.31093c-0.56172,0 -1.12344,-0.31093 -1.49792,-0.62187s-0.74896,-0.9328 -0.9362,-1.8656c-0.18724,-0.62187 -0.37448,-1.55467 -0.37448,-2.48747c0,-0.9328 0.18724,-1.8656 0.37448,-2.48747c0.18724,-0.62187 0.56172,-1.24373 0.9362,-1.55467c0.37448,-0.31093 0.9362,-0.62187 1.49792,-0.62187c0.37448,0 0.74896,0 1.12344,0.31093s0.56172,0.62187 0.74896,0.9328c0.18724,0.31093 0.37448,0.9328 0.37448,1.55467c0,0.31093 0,0.9328 -0.18724,1.24373c-0.18724,0.31093 -0.37448,0.31093 -0.74896,0.31093c-0.37448,0 -0.56172,0 -0.74896,-0.31093c-0.18724,-0.31093 -0.18724,-0.62187 -0.18724,-0.9328c0,-0.31093 0,-0.62187 0,-0.62187c-0.18724,-0.31093 -0.37448,-0.31093 -0.56172,-0.31093c-0.37448,0 -0.74896,0.31093 -0.9362,0.62187c-0.18724,0.31093 -0.37448,1.24373 -0.37448,1.8656c0,0.9328 0.18724,1.55467 0.37448,2.17653s0.56172,0.62187 0.9362,0.62187c0.18724,0 0.37448,0 0.56172,-0.31093c0.18724,0 0.37448,-0.31093 0.37448,-0.62187c0.18724,-0.31093 0.37448,-0.31093 0.56172,-0.31093c0.18724,0.31093 0.37448,0.31093 0.56172,0.31093z" fill="#323031" id="svg_17"/>
   <path stroke="null" class="st0" d="m29.72001,37.57839c0,0 -0.18724,-0.31093 -0.18724,-0.62187l0,-0.62187c0,-0.31093 0,-0.31093 0.18724,-0.62187c0,0 0.18724,-0.31093 0.37448,-0.31093l0.18724,0l0,-4.97493l-0.18724,0c-0.18724,0 -0.18724,0 -0.37448,-0.31093c0,0 -0.18724,-0.31093 -0.18724,-0.62187l0,-0.62187c0,-0.62187 0.18724,-0.62187 0.56172,-0.62187l1.31068,0c0.18724,0 0.18724,0 0.37448,0.31093c0.18724,0.31093 0.18724,0.31093 0.18724,0.62187l0,6.21867l0,0c0.18724,0 0.18724,0 0.37448,0.31093c0,0 0.18724,0.31093 0.18724,0.62187l0,0.62187c0,0.31093 0,0.31093 -0.18724,0.62187c0,0 -0.18724,0.31093 -0.37448,0.31093l-1.8724,0c-0.18724,0 -0.18724,0 -0.37448,-0.31093zm0.37448,-11.1936c-0.18724,-0.31093 -0.37448,-0.62187 -0.37448,-1.24373c0,-0.62187 0.18724,-0.9328 0.37448,-1.24373c0.18724,-0.31093 0.37448,-0.62187 0.74896,-0.62187s0.56172,0.31093 0.74896,0.62187c0.18724,0.31093 0.37448,0.62187 0.37448,1.24373c0,0.62187 -0.18724,0.9328 -0.37448,1.24373c-0.18724,0.31093 -0.37448,0.62187 -0.74896,0.62187s-0.56172,-0.31093 -0.74896,-0.62187z" fill="#323031" id="svg_18"/>
   <path stroke="null" class="st0" d="m37.58408,33.22532c0.37448,0.31093 0.37448,0.9328 0.37448,1.8656c0,0.62187 -0.18724,0.9328 -0.37448,1.55467c-0.18724,0.31093 -0.56172,0.9328 -0.74896,0.9328c-0.37448,0.31093 -0.74896,0.31093 -1.31068,0.31093c-0.74896,0 -1.31068,-0.31093 -1.68516,-0.62187c-0.37448,-0.31093 -0.56172,-0.9328 -0.56172,-1.55467c0,-0.31093 0,-0.62187 0.18724,-0.9328s0.37448,-0.31093 0.56172,-0.31093c0.18724,0 0.37448,0 0.56172,0.31093c0.18724,0.31093 0.18724,0.62187 0.18724,0.9328c0,0 0,0.31093 0,0.31093c0.18724,0 0.37448,0.31093 0.56172,0.31093c0.18724,0 0.56172,0 0.56172,-0.31093c0.18724,0 0.18724,-0.31093 0.18724,-0.62187c0,-0.31093 0,-0.62187 -0.18724,-0.62187s0,-0.31093 -0.18724,-0.31093c-0.56172,-0.31093 -0.9362,-0.62187 -1.31068,-0.9328s-0.56172,-0.62187 -0.74896,-0.9328c-0.18724,-0.31093 -0.18724,-0.9328 -0.18724,-1.24373c0,-0.62187 0.18724,-0.9328 0.37448,-1.55467c0.18724,-0.31093 0.56172,-0.62187 0.74896,-0.9328s0.74896,-0.62187 1.12344,-0.62187c0.74896,0 1.12344,0.31093 1.49792,0.62187s0.56172,0.9328 0.56172,1.55467c0,0.31093 0,0.62187 -0.18724,0.9328s-0.37448,0.31093 -0.56172,0.31093c-0.18724,0 -0.37448,0 -0.56172,-0.31093s-0.18724,-0.62187 -0.18724,-0.9328c0,0 0,0 0,-0.31093c-0.18724,0 -0.37448,-0.31093 -0.56172,-0.31093c-0.18724,0 -0.37448,0 -0.56172,0.31093c-0.18724,0.31093 -0.18724,0.31093 -0.18724,0.62187c0,0.31093 0,0.31093 0.18724,0.62187c0.18724,0.31093 0.37448,0.31093 0.9362,0.62187c0.74896,0.31093 1.31068,0.9328 1.49792,1.24373z" fill="#323031" id="svg_19"/>
   <path stroke="null" class="st0" d="m39.26924,37.57839c0,0 -0.18724,-0.31093 -0.18724,-0.62187l0,-0.62187c0,-0.31093 0,-0.31093 0.18724,-0.62187c0,0 0.18724,-0.31093 0.37448,-0.31093l0.18724,0l0,-4.97493l-0.37448,0c-0.18724,0 -0.18724,0 -0.37448,-0.31093c0,0 -0.18724,-0.31093 -0.18724,-0.62187l0,-0.62187c0,-0.62187 0.18724,-0.62187 0.56172,-0.62187l1.31068,0c0.18724,0 0.18724,0 0.37448,0.31093c0.18724,0.31093 0.18724,0.31093 0.18724,0.62187l0,6.21867l0.18724,0c0.18724,0 0.18724,0 0.37448,0.31093c0,0 0.18724,0.31093 0.18724,0.62187l0,0.62187c0,0.31093 0,0.31093 -0.18724,0.62187c0,0 -0.18724,0.31093 -0.37448,0.31093l-1.8724,0c-0.18724,0 -0.37448,0 -0.37448,-0.31093zm0.37448,-11.1936c-0.18724,-0.31093 -0.37448,-0.62187 -0.37448,-1.24373c0,-0.62187 0.18724,-0.9328 0.37448,-1.24373c0.18724,-0.31093 0.37448,-0.62187 0.74896,-0.62187s0.56172,0.31093 0.74896,0.62187c0.18724,0.31093 0.37448,0.62187 0.37448,1.24373c0,0.62187 -0.18724,0.9328 -0.37448,1.24373c-0.18724,0.31093 -0.37448,0.62187 -0.74896,0.62187s-0.56172,-0.31093 -0.74896,-0.62187z" fill="#323031" id="svg_20"/>
   <path stroke="null" class="st0" d="m43.57576,36.64559c-0.56172,-0.9328 -0.74896,-1.8656 -0.74896,-3.42027c0,-1.55467 0.18724,-2.7984 0.74896,-3.7312s1.12344,-1.24373 2.05964,-1.24373c0.9362,0 1.49792,0.31093 2.05964,1.24373c0.56172,0.9328 0.74896,1.8656 0.74896,3.42027c0,1.55467 -0.18724,2.7984 -0.74896,3.7312s-1.12344,1.24373 -2.05964,1.24373c-0.9362,0 -1.68516,-0.31093 -2.05964,-1.24373zm3.18308,-3.7312c0,-1.8656 -0.37448,-2.48747 -1.12344,-2.48747c-0.37448,0 -0.74896,0.31093 -0.9362,0.62187c-0.18724,0.62187 -0.37448,1.24373 -0.37448,2.17653c0,0.9328 0.18724,1.55467 0.37448,1.8656c0.18724,0.31093 0.56172,0.62187 0.9362,0.62187c0.74896,0 1.12344,-0.9328 1.12344,-2.7984z" fill="#323031" id="svg_21"/>
   <path stroke="null" class="st0" d="m55.93359,36.33465l0,0.62187c0,0.62187 -0.18724,0.62187 -0.56172,0.62187l-1.8724,0c-0.18724,0 -0.18724,0 -0.37448,-0.31093c0,0 -0.18724,-0.31093 -0.18724,-0.62187l0,-0.62187c0,-0.31093 0,-0.31093 0.18724,-0.62187c0,0 0.18724,-0.31093 0.37448,-0.31093l0.18724,0l0,-2.7984c0,-0.9328 0,-1.55467 -0.18724,-1.8656s-0.37448,-0.62187 -0.56172,-0.62187c-0.18724,0 -0.37448,0 -0.56172,0.31093c-0.18724,0.31093 -0.37448,0.62187 -0.37448,0.9328s-0.18724,0.9328 -0.18724,1.24373l0,2.7984l0.18724,0c0.18724,0 0.18724,0 0.37448,0.31093c0,0 0.18724,0.31093 0.18724,0.62187l0,0.62187c0,0.31093 0,0.31093 -0.18724,0.62187c0,0 -0.18724,0.31093 -0.37448,0.31093l-1.8724,0c-0.18724,0 -0.18724,0 -0.37448,-0.31093s-0.18724,-0.31093 -0.18724,-0.62187l0,-0.62187c0,-0.31093 0,-0.31093 0.18724,-0.62187c0,0 0.18724,-0.31093 0.37448,-0.31093l0.18724,0l0,-4.97493l-0.18724,0c-0.18724,0 -0.18724,0 -0.37448,-0.31093c0,0 -0.18724,-0.31093 -0.18724,-0.62187l0,-0.62187c0,-0.62187 0.18724,-0.62187 0.56172,-0.62187l1.31068,0c0.18724,0 0.18724,0 0.37448,0.31093c0.18724,0.31093 0.18724,0.31093 0.18724,0.62187l0,0.9328c0.18724,-0.62187 0.37448,-0.9328 0.74896,-1.55467s0.56172,-0.62187 0.9362,-0.62187c0.56172,0 1.12344,0.31093 1.49792,0.9328c0.37448,0.62187 0.56172,1.55467 0.56172,2.7984l0,3.42027l0.18724,0c-0.18724,0.9328 0,1.24373 0,1.55467z" fill="#323031" id="svg_22"/>
  </g>
  <polyline fill="none" opacity="NaN" points="840,368 " id="svg_106" stroke-linecap="round"/>
  <polyline fill="none" opacity="NaN" points="1207,422 " id="svg_107" stroke-linecap="round"/>
  <g stroke="null" id="svg_109">
   <g stroke="null" class="st6" enable-background="new" id="svg_23">
    <path stroke="null" class="st0" d="m91.57048,26.11564c0.20816,0.27582 0.20816,0.27582 0.20816,0.55164l0,1.93073c0,0.27582 0,0.27582 -0.20816,0.55164c0,0 -0.20816,0.27582 -0.41631,0.27582l-0.41631,0c-0.20816,0 -0.20816,0 -0.41631,-0.27582c0,0 -0.20816,-0.27582 -0.20816,-0.55164l0,-0.82745l-1.24893,0l0,7.72291l0.20816,0c0.20816,0 0.20816,0 0.41631,0.27582c0,0 0.20816,0.27582 0.20816,0.55164l0,0.55164c0,0.27582 0,0.27582 -0.20816,0.55164c0,0 -0.20816,0.27582 -0.41631,0.27582l-2.28971,0c-0.41631,0 -0.62447,-0.27582 -0.62447,-0.55164l0,-0.55164c0,-0.55164 0.20816,-0.55164 0.62447,-0.55164l0.62447,0l0,-7.72291l-1.24893,0l0,0.82745c0,0.27582 0,0.27582 -0.20816,0.55164s-0.20816,0.27582 -0.41631,0.27582l-0.41631,0c-0.20816,0 -0.20816,0 -0.41631,-0.27582s-0.20816,-0.27582 -0.20816,-0.55164l0,-1.93073c0,-0.27582 0,-0.55164 0.20816,-0.55164c0.20816,-0.27582 0.20816,-0.27582 0.41631,-0.27582l5.82835,0c0.41631,-0.55164 0.62447,-0.55164 0.62447,-0.27582z" fill="#323031" id="svg_24"/>
   </g>
   <g stroke="null" class="st6" enable-background="new" id="svg_25">
    <path stroke="null" class="st0" d="m98.0233,29.42545c0.20816,0.27582 0.41631,0.55164 0.41631,1.10327c0,0.55164 0,0.82745 -0.20816,1.10327c-0.20816,0.27582 -0.41631,0.55164 -0.83262,0.55164c-0.20816,0 -0.41631,0 -0.62447,-0.27582c-0.20816,-0.27582 -0.20816,-0.55164 -0.41631,-0.82745c-0.20816,0 -0.62447,0.27582 -0.62447,0.82745c-0.20816,0.27582 -0.20816,0.82745 -0.20816,1.37909l0,2.20655l0.20816,0c0.41631,0 0.62447,0.27582 0.62447,0.55164l0,0.55164c0,0.55164 -0.20816,0.55164 -0.62447,0.55164l-2.49787,0c-0.20816,0 -0.20816,0 -0.41631,-0.27582s-0.20816,-0.27582 -0.20816,-0.55164l0,-0.55164c0,-0.27582 0,-0.27582 0.20816,-0.55164c0,0 0.20816,-0.27582 0.41631,-0.27582l0.20816,0l0,-4.41309l-0.20816,0c-0.20816,0 -0.20816,0 -0.41631,-0.27582c0,0 -0.20816,-0.27582 -0.20816,-0.55164l0,-0.55164c0,-0.55164 0.20816,-0.55164 0.62447,-0.55164l1.45709,0c0.20816,0 0.20816,0 0.41631,0.27582s0.20816,0.27582 0.20816,0.55164l0,1.10327c0.20816,-0.55164 0.41631,-1.10327 0.62447,-1.65491c0.41631,-0.27582 0.62447,-0.55164 1.04078,-0.55164c0.41631,0.55164 0.83262,0.82745 1.04078,1.10327z" fill="#323031" id="svg_26"/>
   </g>
   <g stroke="null" class="st6" enable-background="new" id="svg_27">
    <path stroke="null" class="st0" d="m104.68428,33.83854l-3.95495,0c0,0.55164 0.20816,1.10327 0.41631,1.37909c0.20816,0.27582 0.62447,0.55164 1.04078,0.55164c0.20816,0 0.41631,0 0.62447,-0.27582c0.20816,0 0.41631,-0.27582 0.41631,-0.55164c0.20816,-0.27582 0.41631,-0.27582 0.62447,-0.27582c0.20816,0 0.41631,0 0.41631,0.27582c0.20816,0.27582 0.20816,0.27582 0.20816,0.55164c0,0.27582 0,0.55164 -0.20816,0.82745c-0.20816,0.27582 -0.41631,0.82745 -0.83262,1.10327c-0.41631,0.27582 -0.83262,0.27582 -1.24893,0.27582c-0.62447,0 -1.24893,-0.27582 -1.66524,-0.55164c-0.41631,-0.27582 -0.83262,-0.82745 -1.04078,-1.65491c-0.20816,-0.55164 -0.41631,-1.37909 -0.41631,-2.20655c0,-0.82745 0.20816,-1.65491 0.41631,-2.20655c0.20816,-0.55164 0.62447,-1.10327 1.04078,-1.37909c0.41631,-0.27582 1.04078,-0.55164 1.66524,-0.55164c0.41631,0 1.04078,0.27582 1.45709,0.55164c0.41631,0.27582 0.83262,0.82745 1.04078,1.37909s0.41631,1.37909 0.41631,2.20655c-0.41631,-0.27582 -0.41631,0 -0.41631,0.55164zm-3.95495,-1.65491l2.28971,0l0,-0.27582c0,-0.55164 0,-0.82745 -0.20816,-1.10327c-0.20816,-0.27582 -0.41631,-0.27582 -0.83262,-0.27582c-0.62447,0 -1.04078,0.55164 -1.24893,1.65491z" fill="#323031" id="svg_28"/>
    <path stroke="null" class="st0" d="m111.55341,33.83854l-3.95495,0c0,0.55164 0.20816,1.10327 0.41631,1.37909c0.20816,0.27582 0.62447,0.55164 1.04078,0.55164c0.20816,0 0.41631,0 0.62447,-0.27582c0.20816,0 0.41631,-0.27582 0.41631,-0.55164c0.20816,-0.27582 0.41631,-0.27582 0.62447,-0.27582c0.20816,0 0.41631,0 0.41631,0.27582c0.20816,0.27582 0.20816,0.27582 0.20816,0.55164c0,0.27582 0,0.55164 -0.20816,0.82745c-0.20816,0.27582 -0.41631,0.82745 -0.83262,1.10327s-0.83262,0.27582 -1.24893,0.27582c-0.62447,0 -1.24893,-0.27582 -1.66524,-0.55164c-0.41631,-0.27582 -0.83262,-0.82745 -1.04078,-1.65491c-0.20816,-0.55164 -0.41631,-1.37909 -0.41631,-2.20655c0,-0.82745 0.20816,-1.65491 0.41631,-2.20655c0.20816,-0.55164 0.62447,-1.10327 1.04078,-1.37909s0.83262,-0.82745 1.45709,-0.82745c0.41631,0 1.04078,0.27582 1.45709,0.55164c0.41631,0.27582 0.83262,0.82745 1.04078,1.37909s0.41631,1.37909 0.41631,2.20655c0,0 -0.20816,0.27582 -0.20816,0.82745zm-3.95495,-1.65491l2.28971,0l0,-0.27582c0,-0.55164 0,-0.82745 -0.20816,-1.10327s-0.41631,-0.27582 -0.83262,-0.27582c-0.62447,0 -1.04078,0.55164 -1.24893,1.65491z" fill="#323031" id="svg_29"/>
   </g>
  </g>
  <line stroke="null" id="svg_110" y2="39.49929" x2="79.93602" y1="38.7493" x1="52.81134" fill="#323031"/>
  <rect stroke="null" id="svg_113" height="0.99999" width="103.00292" y="38.6868" x="9.05746" fill="#323031"/>
  <g stroke="null" id="svg_114">
   <path stroke="null" class="st2" d="m51.65932,17.33593l5.68043,-6.10352c0.42077,-0.45211 1.05193,-0.45211 1.47271,0l4.31292,4.63416c0.42077,0.45211 0.42077,1.13028 0,1.58239l-5.68043,6.10352c-0.42077,0.45211 -1.05193,0.45211 -1.47271,0l-4.31292,-4.74718c-0.42077,-0.33908 -0.42077,-1.13028 0,-1.46937z" fill="#FFC0BF" id="svg_30"/>
   <path stroke="null" class="st3" d="m76.6953,0.60776c0.52597,-0.22606 1.15713,0.11303 1.36751,0.67817c0,0.11303 0.10519,0.33908 0.10519,0.45211l-0.94674,9.38134c-0.10519,0.56514 -0.63116,1.01725 -1.26232,0.90423c-0.10519,0 -0.21039,-0.11303 -0.31558,-0.11303l-7.15314,-5.65141c-0.42077,-0.45211 -0.52597,-1.13028 -0.10519,-1.58239c0.10519,-0.11303 0.21039,-0.22606 0.31558,-0.22606l7.99468,-3.84296z" fill="#FFEBC7" id="svg_31"/>
   <ellipse stroke="null" transform="matrix(0.695351 -0.818776 0.730653 0.779216 -3.39145 42.287)" class="st4" cx="70.34241" cy="47.69757" rx="4.3" ry="5.4" fill="#2D99C8" fill-opacity="0.2" id="svg_32"/>
   <path stroke="#2D99C8" class="st7" d="m75.31658,24.45671c0.20173,-0.11303 0.20173,-0.33908 0.10086,-0.56514c0,0 0,0 0,0l0,0c-1.21036,-2.26056 -1.10949,-4.74718 0.20173,-6.21655c1.61381,-1.69542 4.53885,-1.35634 6.5561,0.90423s2.21899,5.53838 0.60518,7.34683c-1.31122,1.46937 -3.63108,1.46937 -5.54748,0c-0.10086,-0.11303 -0.30259,-0.11303 -0.50432,0c0,0 0,0 0,0c-0.10086,0.22606 0,0.45211 0.20173,0.56514c2.21899,1.69542 4.84143,1.69542 6.35439,0c1.9164,-2.03451 1.61381,-5.87747 -0.60518,-8.47711s-5.64834,-3.16479 -7.56474,-1.13028c-1.61381,1.69542 -1.71467,4.63416 -0.30259,7.2338l0,0l0.10086,0.11303c0.10086,0.33908 0.30259,0.33908 0.40346,0.22606z" fill="#2D99C8" stroke-width="0.15" stroke-miterlimit="10" id="svg_33"/>
   <path stroke="null" class="st8" d="m75.11485,1.51199c0.70605,-0.33908 1.61381,0 1.9164,0.7912c0.10086,0.22606 0.10086,0.56514 0.10086,0.7912l-0.80691,9.38134c-0.10086,0.90423 -0.80691,1.58239 -1.61381,1.46937c-0.20173,0 -0.50432,-0.11303 -0.70605,-0.33908l-1.81554,-1.46937c-0.20173,-0.11303 -0.20173,-0.45211 -0.10086,-0.67817c0.10086,-0.22606 0.40346,-0.22606 0.60518,-0.11303l1.81554,1.46937c0.20173,0.22606 0.60518,0.11303 0.80691,-0.11303c0.10086,-0.11303 0.10086,-0.22606 0.10086,-0.22606l0.90776,-9.49437c0,-0.33908 -0.20173,-0.67817 -0.50432,-0.67817c-0.10086,0 -0.20173,0 -0.30259,0l-7.66561,3.84296c-0.30259,0.11303 -0.40346,0.45211 -0.30259,0.7912c0,0.11303 0.10086,0.22606 0.20173,0.22606l1.81554,1.46937c0.20173,0.11303 0.20173,0.45211 0.10086,0.67817c-0.10086,0.22606 -0.40346,0.22606 -0.60518,0.11303l0,0l-1.81554,-1.35634c-0.60518,-0.56514 -0.80691,-1.46937 -0.30259,-2.26056c0.10086,-0.22606 0.30259,-0.45211 0.60518,-0.56514l7.56474,-3.72993l0.00002,0z" fill-rule="evenodd" clip-rule="evenodd" fill="#FEC761" id="svg_34"/>
   <path stroke="null" class="st9" d="m50.70595,20.83981c-0.50432,-0.56514 -0.50432,-1.58239 0,-2.14754l5.7492,-6.32958c0.50432,-0.56514 1.41208,-0.56514 1.9164,0l4.13539,4.63416c0.50432,0.56514 0.50432,1.58239 0,2.14754l-1.71467,1.69542c-0.20173,0.22606 -0.50432,0.22606 -0.60518,0l0,0c-0.20173,-0.22606 -0.20173,-0.56514 0,-0.67817l1.71467,-1.92148c0.20173,-0.22606 0.20173,-0.45211 0,-0.67817c0,0 0,0 0,0l-4.13539,-4.63416c-0.20173,-0.22606 -0.50432,-0.22606 -0.60518,0l-5.7492,6.44261c-0.20173,0.22606 -0.20173,0.56514 0,0.67817l4.13539,4.63416c0.20173,0.22606 0.40346,0.22606 0.60518,0l1.71467,-1.92148c0.20173,-0.22606 0.50432,-0.22606 0.60518,0c0,0 0,0 0,0l0,0c0.20173,0.22606 0.20173,0.56514 0,0.67817l-1.71467,1.92148c-0.50432,0.56514 -1.31122,0.56514 -1.9164,0c0,0 0,0 0,0l-4.13539,-4.52113z" fill-rule="evenodd" clip-rule="evenodd" fill="#E64C3C" id="svg_35"/>
   <path stroke="null" class="st1" d="m86.10894,38.58523l-18.55883,0l0,-1.92148c0,0 0,0 0,-0.11303l0,-1.58239l9.78373,-10.39859c0.20173,-0.22606 0.20173,-0.56514 0,-0.67817c0,0 0,0 0,0c-0.20173,-0.22606 -0.50432,-0.22606 -0.70605,0l-9.07769,9.6074l0,-16.16303c0,-1.46937 0.50432,-2.8257 1.31122,-3.84296l3.12676,-3.6169c0,0 0,0 0,0c0,0 0,0 0,0l0.10086,-0.11303c0,0 0,0 0,0c0.20173,-0.22606 0.20173,-0.56514 0,-0.7912c-0.20173,-0.11303 -0.40346,-0.22606 -0.60518,-0.11303c0,0 -0.10086,0 -0.10086,0.11303c0,0 0,0 0,0l-1.9164,2.14754l0,0l-1.61381,1.92148c-0.30259,0.33908 -0.50432,0.67817 -0.70605,1.13028c-0.20173,-0.67817 -0.60518,-1.24331 -1.00863,-1.69542l-3.02589,-2.93873l1.00863,0.22606c0.20173,0 0.40346,-0.11303 0.40346,-0.33908c0,0 0,0 0,0c0,-0.22606 -0.10086,-0.45211 -0.30259,-0.56514c0,0 0,0 0,0l-2.31986,-0.45211c-0.10086,0 -0.20173,0.11303 -0.30259,0.22606c-0.10086,0.11303 -0.20173,0.22606 -0.10086,0.33908c0,0 0,0 0,0l0.40346,2.59965c0,0.22606 0.20173,0.45211 0.50432,0.33908s0.40346,-0.22606 0.30259,-0.56514l-0.20173,-1.24331l2.72331,2.8257c0.90776,0.90423 1.41208,2.14754 1.41208,3.39085l0,0.67817c0,0 0,0 0,0l0,11.86796l-7.76647,-8.25106c-0.20173,-0.22606 -0.50432,-0.22606 -0.70605,0c-0.20173,0.22606 -0.20173,0.56514 0,0.7912l8.37164,8.8162c0,0 0.10086,0 0.10086,0.11303l0,8.25106l-27.83825,0c-0.30259,0 -0.50432,0.22606 -0.50432,0.56514s0.20173,0.56514 0.50432,0.56514l27.83825,0l0,1.35634c0,0 0,0 0,0.11303c0,0.33908 0.20173,0.56514 0.50432,0.56514c0,0 0,0 0,0c0.30259,0 0.50432,-0.33908 0.50432,-0.67817l0,-1.35634l18.55883,0c0.30259,0 0.49999,-0.64991 0.50432,-0.56514s-0.40346,-0.56514 -0.60518,-0.56514z" fill-rule="evenodd" clip-rule="evenodd" fill="#323031" id="svg_36"/>
  </g>
 </g>
</svg>