<?xml version="1.0" encoding="UTF-8"?>
<svg id="Layer_1" data-name="Layer 1" xmlns="http://www.w3.org/2000/svg" viewBox="0 0 238.83 294.95">
  <defs>
    <style>
      .cls-1, .cls-2, .cls-3 {
        fill-rule: evenodd;
      }

      .cls-1, .cls-4 {
        fill: #ffc762;
      }

      .cls-2, .cls-5 {
        fill: #e54d3c;
      }

      .cls-6, .cls-7 {
        fill: #2f99c8;
        stroke: #2f99c8;
        stroke-miterlimit: 10;
        stroke-width: .15px;
      }

      .cls-6, .cls-5, .cls-4 {
        opacity: .5;
      }

      .cls-3 {
        fill: #323031;
      }
    </style>
  </defs>
  <g id="svg_114" data-name="svg 114">
    <path id="svg_30" data-name="svg 30" class="cls-5" d="M22.83,129.62l34.46-37.02c2.55-2.74,6.38-2.74,8.93,0l26.16,28.11c2.55,2.74,2.55,6.86,0,9.6l-34.46,37.02c-2.55,2.74-6.38,2.74-8.93,0l-26.16-28.8c-2.55-2.06-2.55-6.86,0-8.91Z"/>
    <path id="svg_31" data-name="svg 31" class="cls-4" d="M174.69,28.15c3.19-1.37,7.02.69,8.29,4.11,0,.69.64,2.06.64,2.74l-5.74,56.9c-.64,3.43-3.83,6.17-7.66,5.48-.64,0-1.28-.69-1.91-.69l-43.39-34.28c-2.55-2.74-3.19-6.86-.64-9.6.64-.69,1.28-1.37,1.91-1.37,0,0,48.49-23.31,48.49-23.31Z"/>
    <path id="svg_32" data-name="svg 32" class="cls-6" d="M173.06,131.53c10.02-11.79,28.85-9.93,42.07,4.17,13.22,14.1,15.81,35.08,5.8,46.88-10.02,11.79-28.85,9.93-42.07-4.17-13.22-14.1-15.81-35.08-5.8-46.88Z"/>
    <path id="svg_33" data-name="svg 33" class="cls-7" d="M166.33,172.81c1.22-.69,1.22-2.06.61-3.43h0c-7.34-13.71-6.73-28.8,1.22-37.71,9.79-10.28,27.53-8.23,39.77,5.48,12.24,13.71,13.46,33.59,3.67,44.56-7.95,8.91-22.03,8.91-33.65,0-.61-.69-1.84-.69-3.06,0h0c-.61,1.37,0,2.74,1.22,3.43,13.46,10.28,29.37,10.28,38.54,0,11.62-12.34,9.79-35.65-3.67-51.42-13.46-15.77-34.26-19.2-45.89-6.86-9.79,10.28-10.4,28.11-1.84,43.88h0l.61.69c.61,2.06,1.84,2.06,2.45,1.37h0Z"/>
    <path id="svg_34" data-name="svg 34" class="cls-1" d="M165.1,33.63c4.28-2.06,9.79,0,11.62,4.8.61,1.37.61,3.43.61,4.8l-4.89,56.9c-.61,5.48-4.89,9.6-9.79,8.91-1.22,0-3.06-.69-4.28-2.06l-11.01-8.91c-1.22-.69-1.22-2.74-.61-4.11.61-1.37,2.45-1.37,3.67-.69l11.01,8.91c1.22,1.37,3.67.69,4.89-.69.61-.69.61-1.37.61-1.37l5.51-57.59c0-2.06-1.22-4.11-3.06-4.11h-1.84l-46.5,23.31c-1.84.69-2.45,2.74-1.84,4.8,0,.69.61,1.37,1.22,1.37l11.01,8.91c1.22.69,1.22,2.74.61,4.11-.61,1.37-2.45,1.37-3.67.69h0l-11.01-8.23c-3.67-3.43-4.89-8.91-1.84-13.71.61-1.37,1.84-2.74,3.67-3.43l45.89-22.62h0Z"/>
    <path id="svg_35" data-name="svg 35" class="cls-2" d="M17.04,150.87c-3.06-3.43-3.06-9.6,0-13.03l34.87-38.39c3.06-3.43,8.57-3.43,11.62,0l25.08,28.11c3.06,3.43,3.06,9.6,0,13.03l-10.4,10.28c-1.22,1.37-3.06,1.37-3.67,0h0c-1.22-1.37-1.22-3.43,0-4.11l10.4-11.66c1.22-1.37,1.22-2.74,0-4.11h0l-25.08-28.11c-1.22-1.37-3.06-1.37-3.67,0l-34.87,39.08c-1.22,1.37-1.22,3.43,0,4.11l25.08,28.11c1.22,1.37,2.45,1.37,3.67,0l10.4-11.66c1.22-1.37,3.06-1.37,3.67,0h0c1.22,1.37,1.22,3.43,0,4.11l-10.4,11.66c-3.06,3.43-7.95,3.43-11.62,0h0l-25.08-27.42Z"/>
    <path id="svg_36" data-name="svg 36" class="cls-3" d="M113.66,258.47v16.42c0,3.79,1.11,6.31,2.79,6.31h0c1.67,0,2.79-3.79,2.79-7.58v-15.16"/>
    <path id="svg_36-2" data-name="svg 36" class="cls-3" d="M119.22,258.51v-21.94l59.35-63.08c1.22-1.37,1.22-3.43,0-4.11h0c-1.22-1.37-3.06-1.37-4.28,0l-55.06,58.28v-98.04c0-8.91,3.06-17.14,7.95-23.31l18.97-21.94h0l.61-.69h0c1.22-1.37,1.22-3.43,0-4.8-1.22-.69-2.45-1.37-3.67-.69,0,0-.61,0-.61.69h0l-11.62,13.03h0l-9.79,11.66c-1.84,2.06-3.06,4.11-4.28,6.86-1.22-4.11-3.67-7.54-6.12-10.28l-18.35-17.83,6.12,1.37c1.22,0,2.45-.69,2.45-2.06h0c0-1.37-.61-2.74-1.84-3.43h0l-14.07-2.74c-.61,0-1.22.69-1.84,1.37-.61.69-1.22,1.37-.61,2.06h0l2.45,15.77c0,1.37,1.22,2.74,3.06,2.06s2.45-1.37,1.84-3.43l-1.22-7.54,16.52,17.14c5.51,5.48,8.57,13.03,8.57,20.57v4.11h0v71.99l-47.11-50.05c-1.22-1.37-3.06-1.37-4.28,0-1.22,1.37-1.22,3.43,0,4.8l50.78,53.48s.61,0,.61.69v50.05"/>
  </g>
</svg>